# xmcd
#
# Track frame offsets: 
#        150
#        16455
#        39961
#        64350
#
# Disc length: 1374 seconds
#
# Revision: 0
# Processed by: cddbd v1.5.2PL0 Copyright (c) Steve Scherf et al.
# Submitted via: ExactAudioCopy v0.95b4
#
DISCID=2d055c04
DTITLE=gabry ponte - time to rock
DYEAR=1900
DGENRE=
TTITLE0=radio edit
TTITLE1=extended version
TTITLE2=djs@work version
TTITLE3=dj t-rob vs dj krid kid remix
EXTD=
EXTT0=
EXTT1=
EXTT2=
EXTT3=
PLAYORDER=
